<svg height="460pt" viewBox="-4 0 460 460.00067" width="460pt" xmlns="http://www.w3.org/2000/svg"><path d="m78.199219 440v-214.898438h-28.199219v-55.800781c-.003906-22.09375 17.90625-40.007812 40-40h350.898438c-4.527344-17.667969-20.460938-30.015625-38.699219-30h-352.199219c-22.09375-.007812-40.003906 17.90625-40 40v55.800781h28.199219v214.898438c-.003907 22.09375 17.90625 40.007812 40 40h1.300781c-.84375-3.265625-1.28125-6.625-1.300781-10zm0 0" fill="#d4e1f4"/><path d="m331.199219 0c-12.582031-.0664062-24.660157 4.945312-33.5 13.902344l-70.5 70.398437-52.097657-52.101562c-18.542968-18.453125-48.523437-18.417969-67.019531.082031-18.5 18.496094-18.535156 48.476562-.082031 67.019531l6.5 6.5c1.875 1.890625 4.4375 2.9375 7.101562 2.898438 2.652344-.007813 5.195313-1.050781 7.097657-2.898438 1.875-1.867187 2.925781-4.40625 2.925781-7.050781s-1.050781-5.179688-2.925781-7.050781l-6.5-6.5c-10.632813-10.726563-10.597657-28.03125.085937-38.714844 10.679688-10.679687 27.988282-10.71875 38.714844-.082031l56 56c.476562 1.523437 1.339844 2.898437 2.5 4 1.875 1.886718 4.4375 2.933594 7.101562 2.898437 2.582032.023438 5.0625-.984375 6.898438-2.800781.355469-.273438.691406-.574219 1-.898438.320312-.289062.589844-.625.800781-1l76.5-76.601562c5.136719-5.152344 12.125-8.03125 19.398438-8 11.097656-.019531 21.113281 6.65625 25.363281 16.910156 4.25 10.25 1.894531 22.054688-5.960938 29.890625l-.101562.101563-24.601562 25.199218c-3.835938 3.949219-3.746094 10.261719.203124 14.097657 3.949219 3.839843 10.261719 3.75 14.097657-.199219l24.5-25.199219c13.625-13.511719 17.726562-33.921875 10.375-51.644531-7.347657-17.726562-24.6875-29.2460938-43.875-29.15625zm0 0" fill="#1ae5be"/><path d="m226.101562 223.101562c-55.230468 0-100 44.769532-100 100 0 55.226563 44.769532 100 100 100 55.226563 0 100-44.773437 100-100-.09375-55.191406-44.808593-99.910156-100-100zm0 180c-44.183593 0-80-35.816406-80-80 0-44.183593 35.816407-80 80-80 44.179688 0 80 35.816407 80 80-.058593 44.15625-35.84375 79.941407-80 80zm0 0" fill="#1ae5be"/><g fill="#0635c9"><path d="m402.199219 89.300781h-352.199219c-27.609375.011719-49.9882812 22.390625-50 50v55.800781c.015625 5.515626 4.484375 9.984376 10 10h18.199219v204.898438c.011719 27.609375 22.390625 49.992188 50 50h295.699219c27.613281-.007812 49.992187-22.390625 50-50v-204.898438h18.203124c5.515626-.015624 9.984376-4.484374 10-10v-55.800781c.035157-13.253906-5.210937-25.976562-14.570312-35.359375-9.363281-9.378906-22.078125-14.648437-35.332031-14.640625zm-211.097657 95.800781v-75.800781h69v75.800781zm-171.101562-45.800781c.046875-16.546875 13.453125-29.953125 30-30h121.101562v75.800781h-151.101562zm384 270.699219c-.046875 16.550781-13.453125 29.953125-30 30h-295.800781c-16.546875-.046875-29.949219-13.449219-30-30v-204.898438h355.699219v204.898438zm28.199219-224.898438h-152.097657v-75.800781h122.097657c16.550781.046875 29.953125 13.453125 30 30zm0 0"/><path d="m207.101562 361.5c1.875 1.890625 4.4375 2.9375 7.097657 2.902344 2.582031.023437 5.066406-.984375 6.902343-2.800782l59.796876-57.101562c3.976562-3.808594 4.113281-10.121094.300781-14.097656-3.808594-3.976563-10.121094-4.113282-14.097657-.300782l-52.703124 50.398438-27-27c-3.890626-3.894531-10.203126-3.894531-14.097657 0s-3.894531 10.207031 0 14.101562zm0 0"/></g></svg>